# File created by Blade
# Date/Time:  Tue Apr 07 20:41:02 2015
# Frame Rate: 120.000 fps
#------------------------------------------------------
:FULLY-SPECIFIED
:DEGREES
1024
root 3.704969 34.535994 -3.199631 14.834868 -12.753452 -51.805502
Spine 0.459167 25.154932 36.731721
Head 3.180317 -7.560440 15.828260
LeftShoulder -19.237141 19.123147 37.592812
LeftArm 107.420519 -77.852338 -79.917578
LeftForeArm 16.855463 -0.000000 27.057619
LeftHand 11.712799 -0.000000 22.363753
LeftHandThumb1 -26.253704 0.000000 33.147579
RightShoulder -6.849303 36.351552 -30.738684
RightArm 55.459587 74.104074 91.259634
RightForeArm 37.179050 -0.000000 60.715771
RightHand 1.317661 -0.000000 29.110231
RightHandThumb1 -24.326973 -0.000000 -32.862282
LeftUpLeg -9.017418 -0.674297 47.364353
LeftLeg 21.277647 -0.000000 -0.000000
LeftFoot -12.126046 37.778326 -8.629567
LeftToeBase -6.320914 -0.000000 0.000000
RightUpLeg -135.607142 -53.626583 23.778003
RightLeg -12.081792 -0.000000 0.000000
RightFoot 37.342389 -22.086576 16.964367
RightToeBase 22.348484 -0.000000 -0.000000
1025
root 3.708508 34.557443 -3.207164 15.056100 -12.848900 -51.849471
Spine 0.433879 25.254992 36.685387
Head 3.114642 -7.489676 15.928866
LeftShoulder -19.286701 19.112057 37.583377
LeftArm 107.627703 -77.935077 -80.193145
LeftForeArm 16.943429 0.000000 27.162325
LeftHand 11.733662 0.000000 22.482758
LeftHandThumb1 -26.253704 0.000000 33.147579
RightShoulder -6.824364 36.233385 -30.695409
RightArm 55.592340 74.114074 91.380376
RightForeArm 37.186717 -0.000000 60.749392
RightHand 1.343852 -0.000000 29.020636
RightHandThumb1 -24.326973 -0.000000 -32.862282
LeftUpLeg -9.150899 -0.412229 47.356540
LeftLeg 21.276595 -0.000000 -0.000000
LeftFoot -11.704852 37.966209 -8.437057
LeftToeBase -6.425625 -0.000000 0.000000
RightUpLeg -135.484210 -53.648775 23.594440
RightLeg -12.085424 -0.000000 0.000000
RightFoot 37.282751 -21.992868 16.949617
RightToeBase 22.489338 -0.000000 -0.000000
1026
root 3.709118 34.580767 -3.212764 15.254208 -12.958588 -51.884404
Spine 0.417209 25.346044 36.614764
Head 3.108759 -7.405085 16.029752
LeftShoulder -19.330728 19.124761 37.581713
LeftArm 107.801692 -78.015278 -80.415222
LeftForeArm 16.953532 0.000000 27.274657
LeftHand 11.726755 0.000000 22.623597
LeftHandThumb1 -26.253704 0.000000 33.147579
RightShoulder -6.826548 36.163990 -30.646999
RightArm 55.657068 74.095635 91.436648
RightForeArm 37.181593 -0.000000 60.758602
RightHand 1.318625 -0.000000 29.039216
RightHandThumb1 -24.326973 -0.000000 -32.862282
LeftUpLeg -9.163469 -0.176033 47.327605
LeftLeg 21.119123 -0.000000 -0.000000
LeftFoot -11.246901 38.179606 -8.133269
LeftToeBase -6.365798 -0.000000 0.000000
RightUpLeg -135.391565 -53.648401 23.431064
RightLeg -12.074910 -0.000000 0.000000
RightFoot 37.239422 -21.945417 16.949606
RightToeBase 22.719795 -0.000000 -0.000000
1027
root 3.709354 34.605441 -3.216735 15.442723 -13.036713 -51.925930
Spine 0.373697 25.400861 36.552834
Head 3.139298 -7.350649 16.127440
LeftShoulder -19.319629 19.032488 37.627806
LeftArm 107.574235 -78.080975 -80.255038
LeftForeArm 16.949339 0.000000 27.404981
LeftHand 11.706542 -0.000000 22.707183
LeftHandThumb1 -26.253704 0.000000 33.147579
RightShoulder -6.757292 35.937670 -30.563703
RightArm 56.262330 74.135791 91.992082
RightForeArm 37.281635 -0.000000 60.757751
RightHand 1.237364 0.000000 29.095482
RightHandThumb1 -24.326973 -0.000000 -32.862282
LeftUpLeg -9.121115 -0.100401 47.317668
LeftLeg 20.854802 -0.000000 -0.000000
LeftFoot -10.818985 38.479679 -7.834607
LeftToeBase -6.306725 -0.000000 0.000000
RightUpLeg -135.422223 -53.622332 23.417344
RightLeg -12.058997 -0.000000 0.000000
RightFoot 37.201998 -21.997451 17.098207
RightToeBase 22.996043 -0.000000 -0.000000
1028
root 3.706841 34.631224 -3.220483 15.613164 -13.097545 -51.979607
Spine 0.342196 25.390235 36.511080
Head 3.182500 -7.242722 16.199459
LeftShoulder -19.340898 19.082637 37.627659
LeftArm 107.999141 -78.157461 -80.752807
LeftForeArm 16.922421 0.000000 27.548848
LeftHand 11.778790 -0.000000 22.780119
LeftHandThumb1 -26.253704 0.000000 33.147579
RightShoulder -6.726970 35.909753 -30.525519
RightArm 56.567973 74.154434 92.296639
RightForeArm 37.334249 -0.000000 60.721301
RightHand 1.286389 0.000000 29.077396
RightHandThumb1 -24.326973 -0.000000 -32.862282
LeftUpLeg -9.033635 -0.122481 47.335332
LeftLeg 20.534417 -0.000000 -0.000000
LeftFoot -10.427618 38.773234 -7.588582
LeftToeBase -6.210431 -0.000000 0.000000
RightUpLeg -135.522113 -53.569156 23.497800
RightLeg -12.029318 -0.000000 0.000000
RightFoot 37.175337 -22.005268 17.142704
RightToeBase 23.022711 -0.000000 -0.000000
1029
root 3.702257 34.658074 -3.223608 15.750006 -13.142201 -52.039849
Spine 0.312852 25.334815 36.480515
Head 3.277601 -7.126288 16.281295
LeftShoulder -19.320840 19.122847 37.649153
LeftArm 108.110894 -78.253405 -80.937400
LeftForeArm 16.931949 -0.000000 27.714800
LeftHand 11.773653 0.000000 22.669290
LeftHandThumb1 -26.253704 0.000000 33.147579
RightShoulder -6.682441 35.959676 -30.480143
RightArm 56.782216 74.181095 92.520996
RightForeArm 37.293054 0.000000 60.694111
RightHand 1.223940 0.000000 29.241330
RightHandThumb1 -24.326973 -0.000000 -32.862282
LeftUpLeg -8.882665 -0.248892 47.372387
LeftLeg 20.123121 -0.000000 -0.000000
LeftFoot -10.059406 39.103428 -7.384892
LeftToeBase -6.120239 -0.000000 0.000000
RightUpLeg -135.625379 -53.532888 23.604217
RightLeg -12.009650 -0.000000 0.000000
RightFoot 37.163185 -21.988713 17.078892
RightToeBase 23.099481 -0.000000 -0.000000
1030
root 3.698296 34.683842 -3.224148 15.880593 -13.178887 -52.088635
Spine 0.267994 25.270468 36.455551
Head 3.404092 -7.025459 16.306571
LeftShoulder -19.286449 19.158969 37.659149
LeftArm 108.651695 -78.269195 -81.552542
LeftForeArm 17.008316 -0.000000 27.879255
LeftHand 11.753779 -0.000000 22.598958
LeftHandThumb1 -26.253704 0.000000 33.147579
RightShoulder -6.687009 35.781760 -30.452573
RightArm 57.820181 74.123954 93.551032
RightForeArm 37.175235 0.000000 60.679544
RightHand 1.191904 -0.000000 29.152352
RightHandThumb1 -24.326973 -0.000000 -32.862282
LeftUpLeg -8.731820 -0.362198 47.398921
LeftLeg 19.718032 -0.000000 -0.000000
LeftFoot -9.704341 39.393993 -7.153901
LeftToeBase -5.962617 -0.000000 0.000000
RightUpLeg -135.733916 -53.528625 23.703551
RightLeg -11.994595 -0.000000 0.000000
RightFoot 37.164228 -21.958217 16.910915
RightToeBase 23.148443 -0.000000 -0.000000
1031
root 3.695226 34.708573 -3.225236 15.997977 -13.187593 -52.136816
Spine 0.219662 25.206791 36.436758
Head 3.538241 -6.934260 16.334098
LeftShoulder -19.245441 19.101297 37.722849
LeftArm 108.806801 -78.196335 -81.818988
LeftForeArm 16.998128 -0.000000 28.089666
LeftHand 11.675605 -0.000000 22.810655
LeftHandThumb1 -26.253704 0.000000 33.147579
RightShoulder -6.669580 35.804985 -30.460837
RightArm 58.016825 74.180259 93.750006
RightForeArm 37.224156 -0.000000 60.657798
RightHand 1.326772 0.000000 29.171105
RightHandThumb1 -24.326973 -0.000000 -32.862282
LeftUpLeg -8.588063 -0.504602 47.435529
LeftLeg 19.303660 -0.000000 -0.000000
LeftFoot -9.401993 39.658901 -6.974846
LeftToeBase -5.786514 -0.000000 0.000000
RightUpLeg -135.894786 -53.537451 23.867571
RightLeg -11.981508 -0.000000 0.000000
RightFoot 37.222603 -21.839465 16.663108
RightToeBase 23.033778 -0.000000 -0.000000
1032
root 3.690523 34.732480 -3.228348 16.122753 -13.174888 -52.200257
Spine 0.165677 25.129049 36.441981
Head 3.646127 -6.799791 16.333138
LeftShoulder -19.176421 19.018803 37.782733
LeftArm 108.570881 -78.174716 -81.674268
LeftForeArm 17.147819 -0.000000 28.237166
LeftHand 11.758411 0.000000 22.565941
LeftHandThumb1 -26.253704 0.000000 33.147579
RightShoulder -6.657374 35.860663 -30.495014
RightArm 58.020957 74.248069 93.764788
RightForeArm 37.233241 -0.000000 60.704535
RightHand 1.263109 -0.000000 29.170653
RightHandThumb1 -24.326973 -0.000000 -32.862282
LeftUpLeg -8.454744 -0.664277 47.498323
LeftLeg 18.882844 -0.000000 -0.000000
LeftFoot -9.116437 39.921995 -6.796195
LeftToeBase -5.596393 -0.000000 0.000000
RightUpLeg -135.992732 -53.632170 23.979737
RightLeg -11.998759 -0.000000 0.000000
RightFoot 37.254327 -21.782357 16.497994
RightToeBase 22.745723 -0.000000 -0.000000
1033
root 3.687759 34.753648 -3.231446 16.227139 -13.170819 -52.248677
Spine 0.126448 25.061256 36.449416
Head 3.766329 -6.690223 16.323259
LeftShoulder -19.116955 19.060143 37.805483
LeftArm 109.210505 -78.104247 -82.392414
LeftForeArm 17.118001 -0.000000 28.396727
LeftHand 11.754406 -0.000000 22.754917
LeftHandThumb1 -26.253704 0.000000 33.147579
RightShoulder -6.643133 35.827797 -30.528230
RightArm 58.255689 74.323443 93.981606
RightForeArm 37.193842 -0.000000 60.746973
RightHand 1.299199 -0.000000 29.197843
RightHandThumb1 -24.326973 -0.000000 -32.862282
LeftUpLeg -8.318700 -0.789825 47.544491
LeftLeg 18.491318 -0.000000 -0.000000
LeftFoot -8.925847 40.116493 -6.720819
LeftToeBase -5.426883 -0.000000 0.000000
RightUpLeg -136.013609 -53.772487 24.007100
RightLeg -12.050277 -0.000000 0.000000
RightFoot 37.239799 -21.832047 16.390881
RightToeBase 22.622358 -0.000000 -0.000000
1034
root 3.686185 34.771512 -3.234304 16.333843 -13.169929 -52.264751
Spine 0.064971 25.059831 36.415580
Head 3.867429 -6.702667 16.299793
LeftShoulder -19.013506 19.064403 37.835897
LeftArm 109.569742 -78.033015 -82.768836
LeftForeArm 17.211703 -0.000000 28.475167
LeftHand 11.790814 -0.000000 22.570958
LeftHandThumb1 -26.253704 0.000000 33.147579
RightShoulder -6.704514 35.728592 -30.584173
RightArm 58.589300 74.376906 94.283095
RightForeArm 37.155732 -0.000000 60.796641
RightHand 1.260517 -0.000000 29.283450
RightHandThumb1 -24.326973 -0.000000 -32.862282
LeftUpLeg -8.188611 -0.886097 47.551421
LeftLeg 18.094670 -0.000000 -0.000000
LeftFoot -8.731844 40.297248 -6.596437
LeftToeBase -5.215764 -0.000000 0.000000
RightUpLeg -136.096660 -53.899090 24.060476
RightLeg -12.101322 -0.000000 0.000000
RightFoot 37.059677 -21.872916 16.406346
RightToeBase 23.425660 -0.000000 -0.000000
